<?xml version="1.0" encoding="utf-8"?>
<!-- Generator: Adobe Illustrator 23.0.0, SVG Export Plug-In . SVG Version: 6.00 Build 0)  -->
<svg version="1.1" xmlns="http://www.w3.org/2000/svg" xmlns:xlink="http://www.w3.org/1999/xlink" x="0px" y="0px"
	 viewBox="0 0 408.8 408.8" style="enable-background:new 0 0 408.8 408.8;" xml:space="preserve">
<style type="text/css">
	.st0{display:none;}
	.st1{display:inline;fill:#475993;}
	.st2{fill:#475993;}
</style>
<g id="Layer_1" class="st0">
	<path class="st1" d="M302,22l-149-1c-30.4,0-16.6,9.6-16.6,40L93,229c39,18,15.6,37,46,37l21.4,100.8l0.3-146.1h-38
		c-4.9,0-8.9-4-9-8.9l-0.2-47.1c0-5,4-9,9-9h37.9v-45.5c0-52.8,32.2-81.6,79.3-81.6h38.6c4.9,0,9,4,9,9v39.7c0,4.9-4,9-9,9l-23.7,0
		c-25.6,0-30.6,12.2-30.6,30v39.4h56.3c5.4,0,9.5,4.7,8.9,10l-5.6,47.1c-0.5,4.5-4.4,7.9-8.9,7.9h-50.5l-0.3,146.1L261,257
		c30.4,0,37,19.4,37-11l1-130C299,85.6,332.4,22,302,22z"/>
</g>
<g id="Calque_3">
</g>
<g id="Calque_2">
	<path class="st2" d="M204.4,0C91.5,0,0,91.5,0,204.4s91.5,204.4,204.4,204.4s204.4-91.5,204.4-204.4S317.3,0,204.4,0z M263.1,175.3
		c-1.9,43.3-10.2,38.6-10.2,38.6h-35.4l-0.2,102.5l-44.7,0l0.2-102.5c0,0-20.7,0-26.6,0c-5.9,0-6.3-6.3-6.3-6.3l-0.1-33.1
		c0.8-6.1,6.3-6.3,6.3-6.3h26.6v-31.9c0.4-60.7,55.7-57.2,55.7-57.2h27.1c5.6,0,6.3,6.3,6.3,6.3v27.9c0,5.5-6.3,6.3-6.3,6.3l-16.6,0
		c-24.4-1.2-21.5,21.1-21.5,21.1v27.6h39.5C265.6,171.5,263.1,175.3,263.1,175.3z"/>
</g>
</svg>
